{
  "accessors": [
    {
      "bufferView": 2,
      "componentType": 5126,
      "count": 624,
      "max": [
        0.7513040900230408,
        0.7513040900230408,
        1.691666841506958
      ],
      "min": [
        -0.7513040900230408,
        -0.7513040900230408,
        -1.691666841506958
      ],
      "type": "VEC3"
    },
    {
      "bufferView": 2,
      "byteOffset": 7488,
      "componentType": 5126,
      "count": 624,
      "max": [
        1.0,
        1.0,
        1.0
      ],
      "min": [
        -1.0,
        -1.0,
        -1.0
      ],
      "type": "VEC3"
    },
    {
      "bufferView": 3,
      "componentType": 5126,
      "count": 624,
      "max": [
        0.8590972423553467,
        0.5120907425880432,
        1.0,
        1.0
      ],
      "min": [
        -0.8590747117996216,
        -0.5120017528533936,
        -1.0,
        1.0
      ],
      "type": "VEC4"
    },
    {
      "bufferView": 1,
      "componentType": 5126,
      "count": 624,
      "max": [
        0.7694848775863647,
        0.9414085149765015
      ],
      "min": [
        0.01382368803024292,
        0.34907618165016174
      ],
      "type": "VEC2"
    },
    {
      "bufferView": 1,
      "byteOffset": 4992,
      "componentType": 5126,
      "count": 624,
      "max": [
        0.7694848775863647,
        0.9414085149765015
      ],
      "min": [
        0.01382368803024292,
        0.34907618165016174
      ],
      "type": "VEC2"
    },
    {
      "bufferView": 1,
      "byteOffset": 9984,
      "componentType": 5126,
      "count": 624,
      "max": [
        0.7694848775863647,
        0.9414085149765015
      ],
      "min": [
        0.01382368803024292,
        0.34907618165016174
      ],
      "type": "VEC2"
    },
    {
      "bufferView": 0,
      "componentType": 5125,
      "count": 1800,
      "type": "SCALAR"
    },
    {
      "bufferView": 2,
      "byteOffset": 14976,
      "componentType": 5126,
      "count": 720,
      "max": [
        1.0430001020431519,
        0.9217313528060913,
        1.5481082201004028
      ],
      "min": [
        -1.0430001020431519,
        -0.9217311143875122,
        -1.5481082201004028
      ],
      "type": "VEC3"
    },
    {
      "bufferView": 2,
      "byteOffset": 23616,
      "componentType": 5126,
      "count": 720,
      "max": [
        1.0,
        1.0,
        1.0
      ],
      "min": [
        -1.0,
        -1.0,
        -1.0
      ],
      "type": "VEC3"
    },
    {
      "bufferView": 3,
      "byteOffset": 9984,
      "componentType": 5126,
      "count": 720,
      "max": [
        1.0,
        1.0,
        0.0028537162579596043,
        1.0
      ],
      "min": [
        -1.0,
        -1.0,
        -0.002664572326466441,
        1.0
      ],
      "type": "VEC4"
    },
    {
      "bufferView": 1,
      "byteOffset": 14976,
      "componentType": 5126,
      "count": 720,
      "max": [
        0.9834935069084167,
        0.9861764311790466
      ],
      "min": [
        0.013823671266436577,
        0.013823658227920532
      ],
      "type": "VEC2"
    },
    {
      "bufferView": 1,
      "byteOffset": 20736,
      "componentType": 5126,
      "count": 720,
      "max": [
        0.9834935069084167,
        0.9861764311790466
      ],
      "min": [
        0.013823671266436577,
        0.013823658227920532
      ],
      "type": "VEC2"
    },
    {
      "bufferView": 1,
      "byteOffset": 26496,
      "componentType": 5126,
      "count": 720,
      "max": [
        0.9834935069084167,
        0.9861764311790466
      ],
      "min": [
        0.013823671266436577,
        0.013823658227920532
      ],
      "type": "VEC2"
    },
    {
      "bufferView": 0,
      "byteOffset": 7200,
      "componentType": 5125,
      "count": 1836,
      "type": "SCALAR"
    }
  ],
  "asset": {
    "extras": {
      "author": "relisu (https://sketchfab.com/relisu)",
      "license": "CC-BY-4.0 (http://creativecommons.org/licenses/by/4.0/)",
      "source": "https://sketchfab.com/3d-models/old-rusted-space-capsule-payload-artifact-97653a154bfc4001ada7282b96326106",
      "title": "Old rusted Space Capsule payload artifact"
    },
    "generator": "Sketchfab-15.10.0",
    "version": "2.0"
  },
  "bufferViews": [
    {
      "buffer": 0,
      "byteLength": 14544,
      "name": "floatBufferViews",
      "target": 34963
    },
    {
      "buffer": 0,
      "byteLength": 32256,
      "byteOffset": 14544,
      "byteStride": 8,
      "name": "floatBufferViews",
      "target": 34962
    },
    {
      "buffer": 0,
      "byteLength": 32256,
      "byteOffset": 46800,
      "byteStride": 12,
      "name": "floatBufferViews",
      "target": 34962
    },
    {
      "buffer": 0,
      "byteLength": 21504,
      "byteOffset": 79056,
      "byteStride": 16,
      "name": "floatBufferViews",
      "target": 34962
    }
  ],
  "buffers": [
    {
      "byteLength": 100560,
      "uri": "scene.bin"
    }
  ],
  "images": [
    {
      "uri": "textures/MergedBake_Baked_baseColor.png"
    },
    {
      "uri": "textures/MergedBake_Baked_metallicRoughness.png"
    },
    {
      "uri": "textures/MergedBake_Baked_normal.png"
    }
  ],
  "materials": [
    {
      "doubleSided": true,
      "name": "MergedBake_Baked",
      "normalTexture": {
        "index": 2
      },
      "pbrMetallicRoughness": {
        "baseColorTexture": {
          "index": 0
        },
        "metallicRoughnessTexture": {
          "index": 1
        }
      }
    }
  ],
  "meshes": [
    {
      "name": "bool_obj.slice.frozen_Baked_MergedBake_Baked_0",
      "primitives": [
        {
          "attributes": {
            "NORMAL": 1,
            "POSITION": 0,
            "TANGENT": 2,
            "TEXCOORD_0": 3,
            "TEXCOORD_1": 4,
            "TEXCOORD_2": 5
          },
          "indices": 6,
          "material": 0,
          "mode": 4
        }
      ]
    },
    {
      "name": "bool_obj.frozen_Baked_MergedBake_Baked_0",
      "primitives": [
        {
          "attributes": {
            "NORMAL": 8,
            "POSITION": 7,
            "TANGENT": 9,
            "TEXCOORD_0": 10,
            "TEXCOORD_1": 11,
            "TEXCOORD_2": 12
          },
          "indices": 13,
          "material": 0,
          "mode": 4
        }
      ]
    }
  ],
  "nodes": [
    {
      "children": [
        1
      ],
      "matrix": [
        1.0,
        0.0,
        0.0,
        0.0,
        0.0,
        2.220446049250313e-16,
        -1.0,
        0.0,
        0.0,
        1.0,
        2.220446049250313e-16,
        0.0,
        0.0,
        0.0,
        0.0,
        1.0
      ],
      "name": "Sketchfab_model"
    },
    {
      "children": [
        2
      ],
      "matrix": [
        0.009999999776482582,
        0.0,
        0.0,
        0.0,
        0.0,
        0.0,
        0.009999999776482582,
        0.0,
        0.0,
        -0.009999999776482582,
        0.0,
        0.0,
        0.0,
        0.0,
        0.0,
        1.0
      ],
      "name": "Export.fbx"
    },
    {
      "children": [
        3,
        5
      ],
      "name": "RootNode"
    },
    {
      "children": [
        4
      ],
      "matrix": [
        22.122379302978516,
        0.0,
        0.0,
        0.0,
        0.0,
        22.122379302978494,
        9.669999901334682e-07,
        0.0,
        0.0,
        -9.669999901334682e-07,
        22.122379302978494,
        0.0,
        0.0018090012017637491,
        0.0015974044799804688,
        6.98247779040706e-11,
        1.0
      ],
      "name": "bool_obj.slice.frozen_Baked"
    },
    {
      "mesh": 0,
      "name": "bool_obj.slice.frozen_Baked_MergedBake_Baked_0"
    },
    {
      "children": [
        6
      ],
      "matrix": [
        21.46034812927246,
        0.0,
        0.0,
        0.0,
        0.0,
        21.46034812927244,
        9.380616098471984e-07,
        0.0,
        0.0,
        -9.380616098471984e-07,
        21.46034812927244,
        0.0,
        0.0018090009689331055,
        0.0015974044799804688,
        6.982476402628279e-11,
        1.0
      ],
      "name": "bool_obj.frozen_Baked"
    },
    {
      "mesh": 1,
      "name": "bool_obj.frozen_Baked_MergedBake_Baked_0"
    }
  ],
  "samplers": [
    {
      "magFilter": 9729,
      "minFilter": 9987,
      "wrapS": 10497,
      "wrapT": 10497
    }
  ],
  "scene": 0,
  "scenes": [
    {
      "name": "Sketchfab_Scene",
      "nodes": [
        0
      ]
    }
  ],
  "textures": [
    {
      "sampler": 0,
      "source": 0
    },
    {
      "sampler": 0,
      "source": 1
    },
    {
      "sampler": 0,
      "source": 2
    }
  ]
}
