{
  "accessors": [
    {
      "bufferView": 1,
      "componentType": 5126,
      "count": 65532,
      "max": [
        128.31253051757813,
        113.36708068847656,
        4.099013805389404
      ],
      "min": [
        47.686893463134766,
        59.184051513671875,
        3.0683341026306152
      ],
      "type": "VEC3"
    },
    {
      "bufferView": 1,
      "byteOffset": 786384,
      "componentType": 5126,
      "count": 65532,
      "max": [
        0.9524381756782532,
        0.9996191263198853,
        1.0
      ],
      "min": [
        -0.9191129803657532,
        -0.9985672831535339,
        -1.0
      ],
      "type": "VEC3"
    },
    {
      "bufferView": 0,
      "componentType": 5125,
      "count": 214173,
      "type": "SCALAR"
    },
    {
      "bufferView": 1,
      "byteOffset": 1572768,
      "componentType": 5126,
      "count": 65532,
      "max": [
        129.71380615234375,
        87.91349029541016,
        4.0990118980407715
      ],
      "min": [
        47.4615478515625,
        62.389625549316406,
        3.0683329105377197
      ],
      "type": "VEC3"
    },
    {
      "bufferView": 1,
      "byteOffset": 2359152,
      "componentType": 5126,
      "count": 65532,
      "max": [
        0.9999950528144836,
        0.9964436292648315,
        1.0
      ],
      "min": [
        -0.9487970471382141,
        -0.9995390772819519,
        -1.0
      ],
      "type": "VEC3"
    },
    {
      "bufferView": 0,
      "byteOffset": 856692,
      "componentType": 5125,
      "count": 238416,
      "type": "SCALAR"
    },
    {
      "bufferView": 1,
      "byteOffset": 3145536,
      "componentType": 5126,
      "count": 65532,
      "max": [
        129.65750122070313,
        131.61508178710938,
        136.52488708496094
      ],
      "min": [
        56.8667106628418,
        31.115018844604492,
        3.068333148956299
      ],
      "type": "VEC3"
    },
    {
      "bufferView": 1,
      "byteOffset": 3931920,
      "componentType": 5126,
      "count": 65532,
      "max": [
        0.9962645173072815,
        0.9999794363975525,
        1.0
      ],
      "min": [
        -0.9999940991401672,
        -0.997599184513092,
        -1.0
      ],
      "type": "VEC3"
    },
    {
      "bufferView": 0,
      "byteOffset": 1810356,
      "componentType": 5125,
      "count": 232560,
      "type": "SCALAR"
    },
    {
      "bufferView": 1,
      "byteOffset": 4718304,
      "componentType": 5126,
      "count": 65532,
      "max": [
        138.45079040527344,
        132.61129760742188,
        137.2595672607422
      ],
      "min": [
        72.18595886230469,
        53.87322998046875,
        74.31594848632813
      ],
      "type": "VEC3"
    },
    {
      "bufferView": 1,
      "byteOffset": 5504688,
      "componentType": 5126,
      "count": 65532,
      "max": [
        0.9999949932098389,
        0.9999873638153076,
        0.9997962713241577
      ],
      "min": [
        -0.9999663829803467,
        -0.9999727606773376,
        -0.999957799911499
      ],
      "type": "VEC3"
    },
    {
      "bufferView": 0,
      "byteOffset": 2740596,
      "componentType": 5125,
      "count": 353241,
      "type": "SCALAR"
    },
    {
      "bufferView": 1,
      "byteOffset": 6291072,
      "componentType": 5126,
      "count": 65532,
      "max": [
        129.71380615234375,
        113.36708068847656,
        113.58834075927734
      ],
      "min": [
        47.4615478515625,
        31.115018844604492,
        3.111712694168091
      ],
      "type": "VEC3"
    },
    {
      "bufferView": 1,
      "byteOffset": 7077456,
      "componentType": 5126,
      "count": 65532,
      "max": [
        0.9999939203262329,
        0.9999829530715942,
        1.0
      ],
      "min": [
        -0.9999947547912598,
        -0.9999991059303284,
        -0.9998059272766113
      ],
      "type": "VEC3"
    },
    {
      "bufferView": 0,
      "byteOffset": 4153560,
      "componentType": 5125,
      "count": 339192,
      "type": "SCALAR"
    },
    {
      "bufferView": 1,
      "byteOffset": 7863840,
      "componentType": 5126,
      "count": 65532,
      "max": [
        120.53374481201172,
        101.49209594726563,
        99.64341735839844
      ],
      "min": [
        71.87091064453125,
        55.05364227294922,
        7.728181838989258
      ],
      "type": "VEC3"
    },
    {
      "bufferView": 1,
      "byteOffset": 8650224,
      "componentType": 5126,
      "count": 65532,
      "max": [
        0.9999997615814209,
        0.9999973773956299,
        0.9999998807907104
      ],
      "min": [
        -0.999932587146759,
        -0.9999996423721313,
        -0.9999215602874756
      ],
      "type": "VEC3"
    },
    {
      "bufferView": 0,
      "byteOffset": 5510328,
      "componentType": 5125,
      "count": 366486,
      "type": "SCALAR"
    },
    {
      "bufferView": 1,
      "byteOffset": 9436608,
      "componentType": 5126,
      "count": 65532,
      "max": [
        155.8764190673828,
        151.04925537109375,
        138.13523864746094
      ],
      "min": [
        67.12043762207031,
        50.38081359863281,
        3.0936717987060547
      ],
      "type": "VEC3"
    },
    {
      "bufferView": 1,
      "byteOffset": 10222992,
      "componentType": 5126,
      "count": 65532,
      "max": [
        0.9999984502792358,
        0.9999995827674866,
        1.0
      ],
      "min": [
        -0.9999904632568359,
        -0.9999811053276062,
        -0.9998342394828796
      ],
      "type": "VEC3"
    },
    {
      "bufferView": 0,
      "byteOffset": 6976272,
      "componentType": 5125,
      "count": 314844,
      "type": "SCALAR"
    },
    {
      "bufferView": 1,
      "byteOffset": 11009376,
      "componentType": 5126,
      "count": 39703,
      "max": [
        156.93907165527344,
        113.36708068847656,
        134.60731506347656
      ],
      "min": [
        47.4615478515625,
        31.115018844604492,
        3.075709581375122
      ],
      "type": "VEC3"
    },
    {
      "bufferView": 1,
      "byteOffset": 11485812,
      "componentType": 5126,
      "count": 39703,
      "max": [
        0.9999985098838806,
        0.9999936819076538,
        1.0
      ],
      "min": [
        -0.9999998211860657,
        -0.9999998211860657,
        -1.0
      ],
      "type": "VEC3"
    },
    {
      "bufferView": 0,
      "byteOffset": 8235648,
      "componentType": 5125,
      "count": 117168,
      "type": "SCALAR"
    }
  ],
  "asset": {
    "extras": {
      "author": "Ancient World 3D (https://sketchfab.com/ancientworld3d)",
      "license": "CC-BY-NC-SA-4.0 (http://creativecommons.org/licenses/by-nc-sa/4.0/)",
      "source": "https://sketchfab.com/3d-models/105fa11-nike-samothrace-96d1f625700a49eba8c6f355279f3973",
      "title": "105.FA.11 Nike Samothrace"
    },
    "generator": "Sketchfab-12.65.0",
    "version": "2.0"
  },
  "bufferViews": [
    {
      "buffer": 0,
      "byteLength": 8704320,
      "name": "floatBufferViews",
      "target": 34963
    },
    {
      "buffer": 0,
      "byteLength": 11962248,
      "byteOffset": 8704320,
      "byteStride": 12,
      "name": "floatBufferViews",
      "target": 34962
    }
  ],
  "buffers": [
    {
      "byteLength": 20666568,
      "uri": "scene.bin"
    }
  ],
  "materials": [
    {
      "doubleSided": true,
      "name": "Scene_-_Root",
      "pbrMetallicRoughness": {
        "metallicFactor": 0.0,
        "roughnessFactor": 0.6
      }
    }
  ],
  "meshes": [
    {
      "name": "Object_0",
      "primitives": [
        {
          "attributes": {
            "NORMAL": 1,
            "POSITION": 0
          },
          "indices": 2,
          "material": 0,
          "mode": 4
        }
      ]
    },
    {
      "name": "Object_1",
      "primitives": [
        {
          "attributes": {
            "NORMAL": 4,
            "POSITION": 3
          },
          "indices": 5,
          "material": 0,
          "mode": 4
        }
      ]
    },
    {
      "name": "Object_2",
      "primitives": [
        {
          "attributes": {
            "NORMAL": 7,
            "POSITION": 6
          },
          "indices": 8,
          "material": 0,
          "mode": 4
        }
      ]
    },
    {
      "name": "Object_3",
      "primitives": [
        {
          "attributes": {
            "NORMAL": 10,
            "POSITION": 9
          },
          "indices": 11,
          "material": 0,
          "mode": 4
        }
      ]
    },
    {
      "name": "Object_4",
      "primitives": [
        {
          "attributes": {
            "NORMAL": 13,
            "POSITION": 12
          },
          "indices": 14,
          "material": 0,
          "mode": 4
        }
      ]
    },
    {
      "name": "Object_5",
      "primitives": [
        {
          "attributes": {
            "NORMAL": 16,
            "POSITION": 15
          },
          "indices": 17,
          "material": 0,
          "mode": 4
        }
      ]
    },
    {
      "name": "Object_6",
      "primitives": [
        {
          "attributes": {
            "NORMAL": 19,
            "POSITION": 18
          },
          "indices": 20,
          "material": 0,
          "mode": 4
        }
      ]
    },
    {
      "name": "Object_7",
      "primitives": [
        {
          "attributes": {
            "NORMAL": 22,
            "POSITION": 21
          },
          "indices": 23,
          "material": 0,
          "mode": 4
        }
      ]
    }
  ],
  "nodes": [
    {
      "children": [
        1
      ],
      "matrix": [
        1.0,
        0.0,
        0.0,
        0.0,
        0.0,
        2.220446049250313e-16,
        -1.0,
        0.0,
        0.0,
        1.0,
        2.220446049250313e-16,
        0.0,
        0.0,
        0.0,
        0.0,
        1.0
      ],
      "name": "Sketchfab_model"
    },
    {
      "children": [
        2,
        3,
        4,
        5,
        6,
        7,
        8,
        9
      ],
      "name": "105.FA.11 Nike Samothrace.stl.cleaner.materialmerger.gles"
    },
    {
      "mesh": 0,
      "name": "Object_2"
    },
    {
      "mesh": 1,
      "name": "Object_3"
    },
    {
      "mesh": 2,
      "name": "Object_4"
    },
    {
      "mesh": 3,
      "name": "Object_5"
    },
    {
      "mesh": 4,
      "name": "Object_6"
    },
    {
      "mesh": 5,
      "name": "Object_7"
    },
    {
      "mesh": 6,
      "name": "Object_8"
    },
    {
      "mesh": 7,
      "name": "Object_9"
    }
  ],
  "scene": 0,
  "scenes": [
    {
      "name": "Sketchfab_Scene",
      "nodes": [
        0
      ]
    }
  ]
}
