{
  "accessors": [
    {
      "bufferView": 2,
      "componentType": 5126,
      "count": 10765,
      "max": [
        3.3363285064697266,
        2.7327821254730225,
        3.351954460144043
      ],
      "min": [
        -3.335282802581787,
        -3.1676905155181885,
        -4.0586981773376465
      ],
      "type": "VEC3"
    },
    {
      "bufferView": 2,
      "byteOffset": 129180,
      "componentType": 5126,
      "count": 10765,
      "max": [
        0.9999523162841797,
        1.0,
        1.0
      ],
      "min": [
        -0.9999523758888245,
        -1.0,
        -1.0
      ],
      "type": "VEC3"
    },
    {
      "bufferView": 3,
      "componentType": 5126,
      "count": 10765,
      "max": [
        0.9999657273292542,
        0.9992738962173462,
        0.999688982963562,
        1.0
      ],
      "min": [
        -0.999965250492096,
        -0.9992743730545044,
        -0.9996890425682068,
        -1.0
      ],
      "type": "VEC4"
    },
    {
      "bufferView": 1,
      "componentType": 5126,
      "count": 10765,
      "max": [
        0.9993323683738708,
        0.9808632135391235
      ],
      "min": [
        0.0006676912307739258,
        0.0006676912889815867
      ],
      "type": "VEC2"
    },
    {
      "bufferView": 1,
      "byteOffset": 86120,
      "componentType": 5126,
      "count": 10765,
      "max": [
        0.9993323683738708,
        0.9808632135391235
      ],
      "min": [
        0.0006676912307739258,
        0.0006676912889815867
      ],
      "type": "VEC2"
    },
    {
      "bufferView": 1,
      "byteOffset": 172240,
      "componentType": 5126,
      "count": 10765,
      "max": [
        0.9993323683738708,
        0.9808632135391235
      ],
      "min": [
        0.0006676912307739258,
        0.0006676912889815867
      ],
      "type": "VEC2"
    },
    {
      "bufferView": 1,
      "byteOffset": 258360,
      "componentType": 5126,
      "count": 10765,
      "max": [
        0.9993323683738708,
        0.9808632135391235
      ],
      "min": [
        0.0006676912307739258,
        0.0006676912889815867
      ],
      "type": "VEC2"
    },
    {
      "bufferView": 0,
      "componentType": 5125,
      "count": 49884,
      "type": "SCALAR"
    }
  ],
  "asset": {
    "extras": {
      "author": "Joca (https://sketchfab.com/Joca23)",
      "license": "CC-BY-4.0 (http://creativecommons.org/licenses/by/4.0/)",
      "source": "https://sketchfab.com/3d-models/namek-spaceship-dfe16ac71a9640d198b522993a34d6cb",
      "title": "Namek Spaceship"
    },
    "generator": "Sketchfab-15.19.0",
    "version": "2.0"
  },
  "bufferViews": [
    {
      "buffer": 0,
      "byteLength": 199536,
      "name": "floatBufferViews",
      "target": 34963
    },
    {
      "buffer": 0,
      "byteLength": 344480,
      "byteOffset": 199536,
      "byteStride": 8,
      "name": "floatBufferViews",
      "target": 34962
    },
    {
      "buffer": 0,
      "byteLength": 258360,
      "byteOffset": 544016,
      "byteStride": 12,
      "name": "floatBufferViews",
      "target": 34962
    },
    {
      "buffer": 0,
      "byteLength": 172240,
      "byteOffset": 802376,
      "byteStride": 16,
      "name": "floatBufferViews",
      "target": 34962
    }
  ],
  "buffers": [
    {
      "byteLength": 974616,
      "uri": "scene.bin"
    }
  ],
  "images": [
    {
      "uri": "textures/Material.003_baseColor.png"
    },
    {
      "uri": "textures/Material.003_metallicRoughness.png"
    },
    {
      "uri": "textures/Material.003_normal.png"
    }
  ],
  "materials": [
    {
      "doubleSided": true,
      "name": "Material.003",
      "normalTexture": {
        "index": 2
      },
      "pbrMetallicRoughness": {
        "baseColorTexture": {
          "index": 0
        },
        "metallicRoughnessTexture": {
          "index": 1
        }
      }
    }
  ],
  "meshes": [
    {
      "name": "Object_0",
      "primitives": [
        {
          "attributes": {
            "NORMAL": 1,
            "POSITION": 0,
            "TANGENT": 2,
            "TEXCOORD_0": 3,
            "TEXCOORD_1": 4,
            "TEXCOORD_2": 5,
            "TEXCOORD_3": 6
          },
          "indices": 7,
          "material": 0,
          "mode": 4
        }
      ]
    }
  ],
  "nodes": [
    {
      "children": [
        1
      ],
      "matrix": [
        1.0,
        0.0,
        0.0,
        0.0,
        0.0,
        2.220446049250313e-16,
        -1.0,
        0.0,
        0.0,
        1.0,
        2.220446049250313e-16,
        0.0,
        0.0,
        0.0,
        0.0,
        1.0
      ],
      "name": "Sketchfab_model"
    },
    {
      "children": [
        2
      ],
      "name": "root"
    },
    {
      "children": [
        3
      ],
      "matrix": [
        1.0,
        0.0,
        0.0,
        0.0,
        0.0,
        2.220446049250313e-16,
        1.0,
        0.0,
        0.0,
        -1.0,
        2.220446049250313e-16,
        0.0,
        0.0,
        0.0,
        0.0,
        1.0
      ],
      "name": "GLTF_SceneRootNode"
    },
    {
      "children": [
        4
      ],
      "name": "NamekShip_0"
    },
    {
      "mesh": 0,
      "name": "Object_4"
    }
  ],
  "samplers": [
    {
      "magFilter": 9729,
      "minFilter": 9987,
      "wrapS": 10497,
      "wrapT": 10497
    }
  ],
  "scene": 0,
  "scenes": [
    {
      "name": "Sketchfab_Scene",
      "nodes": [
        0
      ]
    }
  ],
  "textures": [
    {
      "sampler": 0,
      "source": 0
    },
    {
      "sampler": 0,
      "source": 1
    },
    {
      "sampler": 0,
      "source": 2
    }
  ]
}
