{
  "accessors": [
    {
      "bufferView": 2,
      "componentType": 5126,
      "count": 18129,
      "max": [
        0.1926533430814743,
        0.6579035520553589,
        0.09752100706100464
      ],
      "min": [
        -0.2611927390098572,
        0.003199872560799122,
        -0.1990990936756134
      ],
      "type": "VEC3"
    },
    {
      "bufferView": 2,
      "byteOffset": 217548,
      "componentType": 5126,
      "count": 18129,
      "max": [
        0.9998480081558228,
        0.9999070167541504,
        0.9999876022338867
      ],
      "min": [
        -0.9999334812164307,
        -0.9951965808868408,
        -0.9995834827423096
      ],
      "type": "VEC3"
    },
    {
      "bufferView": 1,
      "componentType": 5126,
      "count": 18129,
      "max": [
        0.9971640110015869,
        0.9971722960472107
      ],
      "min": [
        0.0028291563503444195,
        0.00444638729095459
      ],
      "type": "VEC2"
    },
    {
      "bufferView": 1,
      "byteOffset": 145032,
      "componentType": 5126,
      "count": 18129,
      "max": [
        0.9971640110015869,
        0.9971722960472107
      ],
      "min": [
        0.0028291563503444195,
        0.00444638729095459
      ],
      "type": "VEC2"
    },
    {
      "bufferView": 1,
      "byteOffset": 290064,
      "componentType": 5126,
      "count": 18129,
      "max": [
        0.9962584972381592,
        0.9977200627326965
      ],
      "min": [
        0.002071238588541746,
        0.0018399953842163086
      ],
      "type": "VEC2"
    },
    {
      "bufferView": 1,
      "byteOffset": 435096,
      "componentType": 5126,
      "count": 18129,
      "max": [
        0.9971640110015869,
        0.9971722960472107
      ],
      "min": [
        0.0028291563503444195,
        0.00444638729095459
      ],
      "type": "VEC2"
    },
    {
      "bufferView": 0,
      "componentType": 5125,
      "count": 43914,
      "type": "SCALAR"
    }
  ],
  "asset": {
    "extras": {
      "author": "Nazzareno Giannelli (https://sketchfab.com/nazzarenogiannelli)",
      "license": "CC-BY-4.0 (http://creativecommons.org/licenses/by/4.0/)",
      "source": "https://sketchfab.com/3d-models/nike-of-samothrace-51fdc0b0632749afbd67c943119f7bcc",
      "title": "Nike of Samothrace"
    },
    "generator": "Sketchfab-12.68.0",
    "version": "2.0"
  },
  "bufferViews": [
    {
      "buffer": 0,
      "byteLength": 175656,
      "name": "floatBufferViews",
      "target": 34963
    },
    {
      "buffer": 0,
      "byteLength": 580128,
      "byteOffset": 175656,
      "byteStride": 8,
      "name": "floatBufferViews",
      "target": 34962
    },
    {
      "buffer": 0,
      "byteLength": 435096,
      "byteOffset": 755784,
      "byteStride": 12,
      "name": "floatBufferViews",
      "target": 34962
    }
  ],
  "buffers": [
    {
      "byteLength": 1190880,
      "uri": "scene.bin"
    }
  ],
  "images": [
    {
      "uri": "textures/Nike.001_baseColor.png"
    },
    {
      "uri": "textures/Nike.001_metallicRoughness.png"
    }
  ],
  "materials": [
    {
      "doubleSided": true,
      "name": "Nike.001",
      "pbrMetallicRoughness": {
        "baseColorTexture": {
          "index": 0
        },
        "metallicRoughnessTexture": {
          "index": 1,
          "texCoord": 1
        }
      }
    }
  ],
  "meshes": [
    {
      "name": "Object_0",
      "primitives": [
        {
          "attributes": {
            "NORMAL": 1,
            "POSITION": 0,
            "TEXCOORD_0": 2,
            "TEXCOORD_1": 3,
            "TEXCOORD_2": 4,
            "TEXCOORD_3": 5
          },
          "indices": 6,
          "material": 0,
          "mode": 4
        }
      ]
    }
  ],
  "nodes": [
    {
      "children": [
        1
      ],
      "matrix": [
        3.1882402896881104,
        0.0,
        0.0,
        0.0,
        0.0,
        7.079315555298638e-16,
        -3.1882402896881104,
        0.0,
        0.0,
        3.1882402896881104,
        7.079315555298638e-16,
        0.0,
        0.0,
        0.0,
        0.0,
        1.0
      ],
      "name": "Sketchfab_model"
    },
    {
      "children": [
        2
      ],
      "name": "root"
    },
    {
      "children": [
        3
      ],
      "matrix": [
        1.0,
        0.0,
        0.0,
        0.0,
        0.0,
        2.220446049250313e-16,
        1.0,
        0.0,
        0.0,
        -1.0,
        2.220446049250313e-16,
        0.0,
        0.0,
        0.0,
        0.0,
        1.0
      ],
      "name": "GLTF_SceneRootNode"
    },
    {
      "children": [
        4
      ],
      "name": "Nike2_midPoly_0"
    },
    {
      "mesh": 0,
      "name": "Object_4"
    }
  ],
  "samplers": [
    {
      "magFilter": 9729,
      "minFilter": 9987,
      "wrapS": 10497,
      "wrapT": 10497
    }
  ],
  "scene": 0,
  "scenes": [
    {
      "name": "Sketchfab_Scene",
      "nodes": [
        0
      ]
    }
  ],
  "textures": [
    {
      "sampler": 0,
      "source": 0
    },
    {
      "sampler": 0,
      "source": 1
    }
  ]
}
