{
  "accessors": [
    {
      "bufferView": 1,
      "componentType": 5126,
      "count": 512,
      "max": [
        19.0,
        -30.0,
        19.0
      ],
      "min": [
        -19.0,
        -90.0,
        -19.0
      ],
      "type": "VEC3"
    },
    {
      "bufferView": 1,
      "byteOffset": 6144,
      "componentType": 5126,
      "count": 512,
      "max": [
        1.0,
        1.0,
        1.0
      ],
      "min": [
        -1.0,
        -1.0,
        -1.0
      ],
      "type": "VEC3"
    },
    {
      "bufferView": 0,
      "componentType": 5125,
      "count": 1536,
      "type": "SCALAR"
    },
    {
      "bufferView": 1,
      "byteOffset": 12288,
      "componentType": 5126,
      "count": 43150,
      "max": [
        27.0,
        -0.0,
        27.0
      ],
      "min": [
        -27.0,
        -120.0,
        -27.0
      ],
      "type": "VEC3"
    },
    {
      "bufferView": 1,
      "byteOffset": 530088,
      "componentType": 5126,
      "count": 43150,
      "max": [
        1.0,
        1.0,
        1.0
      ],
      "min": [
        -1.0,
        -1.0,
        -1.0
      ],
      "type": "VEC3"
    },
    {
      "bufferView": 0,
      "byteOffset": 6144,
      "componentType": 5125,
      "count": 210078,
      "type": "SCALAR"
    },
    {
      "bufferView": 1,
      "byteOffset": 1047888,
      "componentType": 5126,
      "count": 6053,
      "max": [
        27.5,
        -2.0,
        27.5
      ],
      "min": [
        -27.5,
        -118.0,
        -27.5
      ],
      "type": "VEC3"
    },
    {
      "bufferView": 1,
      "byteOffset": 1120524,
      "componentType": 5126,
      "count": 6053,
      "max": [
        1.0,
        1.0,
        1.0
      ],
      "min": [
        -1.0,
        -1.0,
        -1.0
      ],
      "type": "VEC3"
    },
    {
      "bufferView": 0,
      "byteOffset": 846456,
      "componentType": 5125,
      "count": 19602,
      "type": "SCALAR"
    },
    {
      "bufferView": 1,
      "byteOffset": 1193160,
      "componentType": 5126,
      "count": 3244,
      "max": [
        26.5,
        -20.996999740600586,
        26.5
      ],
      "min": [
        -26.5,
        -99.00299835205078,
        -26.5
      ],
      "type": "VEC3"
    },
    {
      "bufferView": 1,
      "byteOffset": 1232088,
      "componentType": 5126,
      "count": 3244,
      "max": [
        1.0,
        1.0,
        1.0
      ],
      "min": [
        -1.0,
        -0.9999998211860657,
        -1.0
      ],
      "type": "VEC3"
    },
    {
      "bufferView": 0,
      "byteOffset": 924864,
      "componentType": 5125,
      "count": 9396,
      "type": "SCALAR"
    },
    {
      "bufferView": 1,
      "byteOffset": 1271016,
      "componentType": 5126,
      "count": 9331,
      "max": [
        24.0,
        -5.689799785614014,
        24.0
      ],
      "min": [
        -24.0,
        -114.31069946289063,
        -24.0
      ],
      "type": "VEC3"
    },
    {
      "bufferView": 1,
      "byteOffset": 1382988,
      "componentType": 5126,
      "count": 9331,
      "max": [
        1.0,
        1.0,
        1.0
      ],
      "min": [
        -1.0,
        -1.0,
        -1.0
      ],
      "type": "VEC3"
    },
    {
      "bufferView": 0,
      "byteOffset": 962448,
      "componentType": 5125,
      "count": 28971,
      "type": "SCALAR"
    },
    {
      "bufferView": 1,
      "byteOffset": 1494960,
      "componentType": 5126,
      "count": 23727,
      "max": [
        28.0,
        -4.0,
        28.0
      ],
      "min": [
        -28.0,
        -116.0,
        -28.0
      ],
      "type": "VEC3"
    },
    {
      "bufferView": 1,
      "byteOffset": 1779684,
      "componentType": 5126,
      "count": 23727,
      "max": [
        1.0,
        1.0,
        1.0
      ],
      "min": [
        -1.0,
        -1.0,
        -1.0
      ],
      "type": "VEC3"
    },
    {
      "bufferView": 0,
      "byteOffset": 1078332,
      "componentType": 5125,
      "count": 106491,
      "type": "SCALAR"
    },
    {
      "bufferView": 1,
      "byteOffset": 2064408,
      "componentType": 5126,
      "count": 1106,
      "max": [
        12.0,
        -48.0,
        12.0
      ],
      "min": [
        -12.0,
        -72.0,
        -12.0
      ],
      "type": "VEC3"
    },
    {
      "bufferView": 1,
      "byteOffset": 2077680,
      "componentType": 5126,
      "count": 1106,
      "max": [
        1.0,
        1.0,
        1.0
      ],
      "min": [
        -1.0,
        -1.0,
        -1.0
      ],
      "type": "VEC3"
    },
    {
      "bufferView": 0,
      "byteOffset": 1504296,
      "componentType": 5125,
      "count": 6624,
      "type": "SCALAR"
    }
  ],
  "asset": {
    "extras": {
      "author": "Rowan Design (https://sketchfab.com/rowansreid)",
      "license": "CC-BY-NC-4.0 (http://creativecommons.org/licenses/by-nc/4.0/)",
      "source": "https://sketchfab.com/3d-models/the-resurrection-captual-4fdbc8c804ab4b508ea9eaffafe74a44",
      "title": "The Resurrection Captual"
    },
    "generator": "Sketchfab-12.66.0",
    "version": "2.0"
  },
  "bufferViews": [
    {
      "buffer": 0,
      "byteLength": 1530792,
      "name": "floatBufferViews",
      "target": 34963
    },
    {
      "buffer": 0,
      "byteLength": 2090952,
      "byteOffset": 1530792,
      "byteStride": 12,
      "name": "floatBufferViews",
      "target": 34962
    }
  ],
  "buffers": [
    {
      "byteLength": 3621744,
      "uri": "scene.bin"
    }
  ],
  "extensionsUsed": [
    "KHR_materials_clearcoat",
    "KHR_materials_transmission"
  ],
  "materials": [
    {
      "alphaMode": "BLEND",
      "doubleSided": true,
      "extensions": {
        "KHR_materials_clearcoat": {
          "clearcoatFactor": 1.0,
          "clearcoatRoughnessFactor": 0.04
        },
        "KHR_materials_transmission": {
          "transmissionFactor": 0.9730974678953782
        }
      },
      "name": "color_-1025645852",
      "pbrMetallicRoughness": {
        "baseColorFactor": [
          0.866667,
          0.886275,
          0.894118,
          0.25
        ],
        "metallicFactor": 0.0,
        "roughnessFactor": 0.0
      }
    },
    {
      "doubleSided": true,
      "name": "color_10988977",
      "pbrMetallicRoughness": {
        "baseColorFactor": [
          0.654902,
          0.678431,
          0.694118,
          1.0
        ],
        "roughnessFactor": 0.19428616005764743
      }
    },
    {
      "doubleSided": true,
      "emissiveFactor": [
        1.0,
        0.32829706641976675,
        0.4759321987597639
      ],
      "name": "color_14093196",
      "pbrMetallicRoughness": {
        "baseColorFactor": [
          0.0,
          0.0,
          0.0,
          1.0
        ],
        "metallicFactor": 0.0,
        "roughnessFactor": 0.0
      }
    },
    {
      "doubleSided": true,
      "emissiveFactor": [
        1.0,
        1.0,
        1.0
      ],
      "name": "color_16448250",
      "pbrMetallicRoughness": {
        "baseColorFactor": [
          0.0,
          0.0,
          0.0,
          1.0
        ],
        "metallicFactor": 0.0,
        "roughnessFactor": 0.0
      }
    },
    {
      "doubleSided": true,
      "name": "color_2829873",
      "pbrMetallicRoughness": {
        "baseColorFactor": [
          0.168627,
          0.180392,
          0.192157,
          1.0
        ],
        "roughnessFactor": 0.5083229777341518
      }
    },
    {
      "doubleSided": true,
      "name": "color_6383466",
      "pbrMetallicRoughness": {
        "baseColorFactor": [
          0.380392,
          0.403922,
          0.415686,
          1.0
        ],
        "roughnessFactor": 0.4266734051382607
      }
    },
    {
      "doubleSided": true,
      "emissiveFactor": [
        1.0,
        0.2025820981987743,
        0.2025820981987743
      ],
      "name": "color_9444435",
      "pbrMetallicRoughness": {
        "baseColorFactor": [
          0.564706,
          0.109804,
          0.32549,
          1.0
        ],
        "metallicFactor": 0.0,
        "roughnessFactor": 0.0
      }
    }
  ],
  "meshes": [
    {
      "name": "Object_0",
      "primitives": [
        {
          "attributes": {
            "NORMAL": 1,
            "POSITION": 0
          },
          "indices": 2,
          "material": 0,
          "mode": 4
        }
      ]
    },
    {
      "name": "Object_1",
      "primitives": [
        {
          "attributes": {
            "NORMAL": 4,
            "POSITION": 3
          },
          "indices": 5,
          "material": 1,
          "mode": 4
        }
      ]
    },
    {
      "name": "Object_2",
      "primitives": [
        {
          "attributes": {
            "NORMAL": 7,
            "POSITION": 6
          },
          "indices": 8,
          "material": 2,
          "mode": 4
        }
      ]
    },
    {
      "name": "Object_3",
      "primitives": [
        {
          "attributes": {
            "NORMAL": 10,
            "POSITION": 9
          },
          "indices": 11,
          "material": 3,
          "mode": 4
        }
      ]
    },
    {
      "name": "Object_4",
      "primitives": [
        {
          "attributes": {
            "NORMAL": 13,
            "POSITION": 12
          },
          "indices": 14,
          "material": 4,
          "mode": 4
        }
      ]
    },
    {
      "name": "Object_5",
      "primitives": [
        {
          "attributes": {
            "NORMAL": 16,
            "POSITION": 15
          },
          "indices": 17,
          "material": 5,
          "mode": 4
        }
      ]
    },
    {
      "name": "Object_6",
      "primitives": [
        {
          "attributes": {
            "NORMAL": 19,
            "POSITION": 18
          },
          "indices": 20,
          "material": 6,
          "mode": 4
        }
      ]
    }
  ],
  "nodes": [
    {
      "children": [
        1
      ],
      "matrix": [
        1.0,
        0.0,
        0.0,
        0.0,
        0.0,
        0.07270210236310981,
        -0.9973536729812622,
        0.0,
        0.0,
        0.9973536729812622,
        0.07270210236310981,
        0.0,
        0.0,
        4.362125873565674,
        0.15877871215343572,
        1.0
      ],
      "name": "Sketchfab_model"
    },
    {
      "children": [
        2,
        3,
        4,
        5,
        6,
        7,
        8
      ],
      "name": "tinker.obj.cleaner.materialmerger.gles"
    },
    {
      "mesh": 0,
      "name": "Object_2"
    },
    {
      "mesh": 1,
      "name": "Object_3"
    },
    {
      "mesh": 2,
      "name": "Object_4"
    },
    {
      "mesh": 3,
      "name": "Object_5"
    },
    {
      "mesh": 4,
      "name": "Object_6"
    },
    {
      "mesh": 5,
      "name": "Object_7"
    },
    {
      "mesh": 6,
      "name": "Object_8"
    }
  ],
  "scene": 0,
  "scenes": [
    {
      "name": "Sketchfab_Scene",
      "nodes": [
        0
      ]
    }
  ]
}
