{
  "accessors": [
    {
      "bufferView": 1,
      "componentType": 5126,
      "count": 65532,
      "max": [
        49.48451614379883,
        47.718563079833984,
        156.749755859375
      ],
      "min": [
        -49.18471908569336,
        -43.22058868408203,
        -31.13787269592285
      ],
      "type": "VEC3"
    },
    {
      "bufferView": 1,
      "byteOffset": 786384,
      "componentType": 5126,
      "count": 65532,
      "max": [
        0.9999943971633911,
        0.9998496174812317,
        1.0
      ],
      "min": [
        -0.9999901652336121,
        -0.9999558329582214,
        -1.0
      ],
      "type": "VEC3"
    },
    {
      "bufferView": 0,
      "componentType": 5125,
      "count": 334416,
      "type": "SCALAR"
    },
    {
      "bufferView": 1,
      "byteOffset": 1572768,
      "componentType": 5126,
      "count": 65532,
      "max": [
        30.660816192626953,
        29.77341651916504,
        1.5
      ],
      "min": [
        -30.682159423828125,
        -27.462265014648438,
        -31.13787269592285
      ],
      "type": "VEC3"
    },
    {
      "bufferView": 1,
      "byteOffset": 2359152,
      "componentType": 5126,
      "count": 65532,
      "max": [
        1.0,
        1.0,
        1.0
      ],
      "min": [
        -1.0,
        -0.9999999403953552,
        -1.0
      ],
      "type": "VEC3"
    },
    {
      "bufferView": 0,
      "byteOffset": 1337664,
      "componentType": 5125,
      "count": 365337,
      "type": "SCALAR"
    },
    {
      "bufferView": 1,
      "byteOffset": 3145536,
      "componentType": 5126,
      "count": 65532,
      "max": [
        43.51216506958008,
        43.619571685791016,
        92.0
      ],
      "min": [
        -43.51216506958008,
        -43.619571685791016,
        -31.13787269592285
      ],
      "type": "VEC3"
    },
    {
      "bufferView": 1,
      "byteOffset": 3931920,
      "componentType": 5126,
      "count": 65532,
      "max": [
        1.0,
        0.999687671661377,
        1.0
      ],
      "min": [
        -1.0,
        -0.9997013807296753,
        -1.0
      ],
      "type": "VEC3"
    },
    {
      "bufferView": 0,
      "byteOffset": 2799012,
      "componentType": 5125,
      "count": 356103,
      "type": "SCALAR"
    },
    {
      "bufferView": 1,
      "byteOffset": 4718304,
      "componentType": 5126,
      "count": 65532,
      "max": [
        45.0,
        44.999210357666016,
        165.0
      ],
      "min": [
        -44.9968376159668,
        -44.999210357666016,
        -5.140427589416504
      ],
      "type": "VEC3"
    },
    {
      "bufferView": 1,
      "byteOffset": 5504688,
      "componentType": 5126,
      "count": 65532,
      "max": [
        1.0,
        1.0,
        1.0
      ],
      "min": [
        -1.0,
        -1.0,
        -1.0
      ],
      "type": "VEC3"
    },
    {
      "bufferView": 0,
      "byteOffset": 4223424,
      "componentType": 5125,
      "count": 296484,
      "type": "SCALAR"
    },
    {
      "bufferView": 1,
      "byteOffset": 6291072,
      "componentType": 5126,
      "count": 65532,
      "max": [
        27.433650970458984,
        26.718591690063477,
        5.174877643585205
      ],
      "min": [
        -27.454994201660156,
        -30.66997528076172,
        -31.13787269592285
      ],
      "type": "VEC3"
    },
    {
      "bufferView": 1,
      "byteOffset": 7077456,
      "componentType": 5126,
      "count": 65532,
      "max": [
        1.0,
        0.9999500513076782,
        1.0
      ],
      "min": [
        -1.0,
        -0.9999963045120239,
        -1.0
      ],
      "type": "VEC3"
    },
    {
      "bufferView": 0,
      "byteOffset": 5409360,
      "componentType": 5125,
      "count": 364158,
      "type": "SCALAR"
    },
    {
      "bufferView": 1,
      "byteOffset": 7863840,
      "componentType": 5126,
      "count": 65532,
      "max": [
        29.193920135498047,
        28.306516647338867,
        -16.345895767211914
      ],
      "min": [
        -29.21526336669922,
        -12.205585479736328,
        -24.421186447143555
      ],
      "type": "VEC3"
    },
    {
      "bufferView": 1,
      "byteOffset": 8650224,
      "componentType": 5126,
      "count": 65532,
      "max": [
        0.9996946454048157,
        0.9996967911720276,
        0.9999387264251709
      ],
      "min": [
        -0.9998719096183777,
        -0.9998718500137329,
        -0.955944299697876
      ],
      "type": "VEC3"
    },
    {
      "bufferView": 0,
      "byteOffset": 6865992,
      "componentType": 5125,
      "count": 376515,
      "type": "SCALAR"
    },
    {
      "bufferView": 1,
      "byteOffset": 9436608,
      "componentType": 5126,
      "count": 13140,
      "max": [
        29.487300872802734,
        28.599897384643555,
        -23.06258201599121
      ],
      "min": [
        -29.508642196655273,
        -12.498970031738281,
        -27.107860565185547
      ],
      "type": "VEC3"
    },
    {
      "bufferView": 1,
      "byteOffset": 9594288,
      "componentType": 5126,
      "count": 13140,
      "max": [
        0.999377429485321,
        0.9991186261177063,
        0.9999382495880127
      ],
      "min": [
        -0.9996485710144043,
        -0.999697744846344,
        -0.9559370279312134
      ],
      "type": "VEC3"
    },
    {
      "bufferView": 0,
      "byteOffset": 8372052,
      "componentType": 5125,
      "count": 72489,
      "type": "SCALAR"
    }
  ],
  "asset": {
    "extras": {
      "author": "perceval-66 (https://sketchfab.com/perceval-66)",
      "license": "CC-BY-4.0 (http://creativecommons.org/licenses/by/4.0/)",
      "source": "https://sketchfab.com/3d-models/escape-pod-capsule-de-sauvetage-e5b79c6c2e3d41a1953bbedf351d15c7",
      "title": "Escape-POD - capsule de sauvetage"
    },
    "generator": "Sketchfab-15.37.0",
    "version": "2.0"
  },
  "bufferViews": [
    {
      "buffer": 0,
      "byteLength": 8662008,
      "name": "floatBufferViews",
      "target": 34963
    },
    {
      "buffer": 0,
      "byteLength": 9751968,
      "byteOffset": 8662008,
      "byteStride": 12,
      "name": "floatBufferViews",
      "target": 34962
    }
  ],
  "buffers": [
    {
      "byteLength": 18413976,
      "uri": "scene.bin"
    }
  ],
  "materials": [
    {
      "doubleSided": true,
      "name": "Scene_-_Root",
      "pbrMetallicRoughness": {
        "metallicFactor": 0.0,
        "roughnessFactor": 0.6
      }
    }
  ],
  "meshes": [
    {
      "name": "Object_0",
      "primitives": [
        {
          "attributes": {
            "NORMAL": 1,
            "POSITION": 0
          },
          "indices": 2,
          "material": 0,
          "mode": 4
        }
      ]
    },
    {
      "name": "Object_1",
      "primitives": [
        {
          "attributes": {
            "NORMAL": 4,
            "POSITION": 3
          },
          "indices": 5,
          "material": 0,
          "mode": 4
        }
      ]
    },
    {
      "name": "Object_2",
      "primitives": [
        {
          "attributes": {
            "NORMAL": 7,
            "POSITION": 6
          },
          "indices": 8,
          "material": 0,
          "mode": 4
        }
      ]
    },
    {
      "name": "Object_3",
      "primitives": [
        {
          "attributes": {
            "NORMAL": 10,
            "POSITION": 9
          },
          "indices": 11,
          "material": 0,
          "mode": 4
        }
      ]
    },
    {
      "name": "Object_4",
      "primitives": [
        {
          "attributes": {
            "NORMAL": 13,
            "POSITION": 12
          },
          "indices": 14,
          "material": 0,
          "mode": 4
        }
      ]
    },
    {
      "name": "Object_5",
      "primitives": [
        {
          "attributes": {
            "NORMAL": 16,
            "POSITION": 15
          },
          "indices": 17,
          "material": 0,
          "mode": 4
        }
      ]
    },
    {
      "name": "Object_6",
      "primitives": [
        {
          "attributes": {
            "NORMAL": 19,
            "POSITION": 18
          },
          "indices": 20,
          "material": 0,
          "mode": 4
        }
      ]
    }
  ],
  "nodes": [
    {
      "children": [
        1
      ],
      "matrix": [
        0.6451983451843262,
        0.7640151381492615,
        1.6964543950709598e-16,
        0.0,
        0.0,
        2.220446049250313e-16,
        -1.0,
        0.0,
        -0.7640151381492615,
        0.6451983451843262,
        1.4326281165473768e-16,
        0.0,
        0.0,
        0.0,
        0.0,
        1.0
      ],
      "name": "Sketchfab_model"
    },
    {
      "children": [
        2,
        3,
        4,
        5,
        6,
        7,
        8
      ],
      "name": "Escape-POD.stl.cleaner.materialmerger.gles"
    },
    {
      "mesh": 0,
      "name": "Object_2"
    },
    {
      "mesh": 1,
      "name": "Object_3"
    },
    {
      "mesh": 2,
      "name": "Object_4"
    },
    {
      "mesh": 3,
      "name": "Object_5"
    },
    {
      "mesh": 4,
      "name": "Object_6"
    },
    {
      "mesh": 5,
      "name": "Object_7"
    },
    {
      "mesh": 6,
      "name": "Object_8"
    }
  ],
  "scene": 0,
  "scenes": [
    {
      "name": "Sketchfab_Scene",
      "nodes": [
        0
      ]
    }
  ]
}
