{
  "accessors": [
    {
      "bufferView": 2,
      "componentType": 5126,
      "count": 486,
      "max": [
        0.13743530213832855,
        0.08948808908462524,
        0.0
      ],
      "min": [
        -0.13743530213832855,
        -0.08948808908462524,
        -0.017761824652552605
      ],
      "type": "VEC3"
    },
    {
      "bufferView": 2,
      "byteOffset": 5832,
      "componentType": 5126,
      "count": 486,
      "max": [
        1.0,
        1.0,
        1.0
      ],
      "min": [
        -1.0,
        -1.0,
        -1.0
      ],
      "type": "VEC3"
    },
    {
      "bufferView": 3,
      "componentType": 5126,
      "count": 486,
      "max": [
        1.0,
        1.0,
        1.0,
        1.0
      ],
      "min": [
        -1.0,
        -1.0,
        -1.0,
        1.0
      ],
      "type": "VEC4"
    },
    {
      "bufferView": 1,
      "componentType": 5126,
      "count": 486,
      "max": [
        0.9913067817687988,
        0.9874732494354248
      ],
      "min": [
        0.007809464354068041,
        0.007816910743713379
      ],
      "type": "VEC2"
    },
    {
      "bufferView": 1,
      "byteOffset": 3888,
      "componentType": 5126,
      "count": 486,
      "max": [
        0.9913067817687988,
        0.9874732494354248
      ],
      "min": [
        0.007809464354068041,
        0.007816910743713379
      ],
      "type": "VEC2"
    },
    {
      "bufferView": 1,
      "byteOffset": 7776,
      "componentType": 5126,
      "count": 486,
      "max": [
        0.9913067817687988,
        0.9874732494354248
      ],
      "min": [
        0.007809464354068041,
        0.007816910743713379
      ],
      "type": "VEC2"
    },
    {
      "bufferView": 1,
      "byteOffset": 11664,
      "componentType": 5126,
      "count": 486,
      "max": [
        0.9913067817687988,
        0.9874732494354248
      ],
      "min": [
        0.007809464354068041,
        0.007816910743713379
      ],
      "type": "VEC2"
    },
    {
      "bufferView": 0,
      "componentType": 5125,
      "count": 900,
      "type": "SCALAR"
    },
    {
      "bufferView": 2,
      "byteOffset": 11664,
      "componentType": 5126,
      "count": 488,
      "max": [
        0.13864463567733765,
        0.09069740772247314,
        -0.006228583864867687
      ],
      "min": [
        -0.13864463567733765,
        -0.09069740772247314,
        -0.011533239856362343
      ],
      "type": "VEC3"
    },
    {
      "bufferView": 2,
      "byteOffset": 17520,
      "componentType": 5126,
      "count": 488,
      "max": [
        1.0,
        1.0,
        1.0
      ],
      "min": [
        -1.0,
        -1.0,
        -1.0
      ],
      "type": "VEC3"
    },
    {
      "bufferView": 3,
      "byteOffset": 7776,
      "componentType": 5126,
      "count": 488,
      "max": [
        1.0,
        1.0,
        1.0,
        1.0
      ],
      "min": [
        -1.0,
        -1.0,
        -1.0,
        -1.0
      ],
      "type": "VEC4"
    },
    {
      "bufferView": 1,
      "byteOffset": 15552,
      "componentType": 5126,
      "count": 488,
      "max": [
        0.9579707384109497,
        0.9910504817962646
      ],
      "min": [
        0.007811409886926413,
        0.007809907663613558
      ],
      "type": "VEC2"
    },
    {
      "bufferView": 1,
      "byteOffset": 19456,
      "componentType": 5126,
      "count": 488,
      "max": [
        0.9579707384109497,
        0.9910504817962646
      ],
      "min": [
        0.007811409886926413,
        0.007809907663613558
      ],
      "type": "VEC2"
    },
    {
      "bufferView": 1,
      "byteOffset": 23360,
      "componentType": 5126,
      "count": 488,
      "max": [
        0.9579707384109497,
        0.9910504817962646
      ],
      "min": [
        0.007811409886926413,
        0.007809907663613558
      ],
      "type": "VEC2"
    },
    {
      "bufferView": 1,
      "byteOffset": 27264,
      "componentType": 5126,
      "count": 488,
      "max": [
        0.9579707384109497,
        0.9910504817962646
      ],
      "min": [
        0.007811409886926413,
        0.007809907663613558
      ],
      "type": "VEC2"
    },
    {
      "bufferView": 0,
      "byteOffset": 3600,
      "componentType": 5125,
      "count": 1008,
      "type": "SCALAR"
    }
  ],
  "asset": {
    "extras": {
      "author": "Tronin Dmitry (https://sketchfab.com/kosmotron)",
      "license": "CC-BY-4.0 (http://creativecommons.org/licenses/by/4.0/)",
      "source": "https://sketchfab.com/3d-models/sci-fi-tablet-display-bb6a0dc16a4b40f7a8ab181953a06d69",
      "title": "Sci-fi Tablet, display"
    },
    "generator": "Sketchfab-15.7.0",
    "version": "2.0"
  },
  "bufferViews": [
    {
      "buffer": 0,
      "byteLength": 7632,
      "name": "floatBufferViews",
      "target": 34963
    },
    {
      "buffer": 0,
      "byteLength": 31168,
      "byteOffset": 7632,
      "byteStride": 8,
      "name": "floatBufferViews",
      "target": 34962
    },
    {
      "buffer": 0,
      "byteLength": 23376,
      "byteOffset": 38800,
      "byteStride": 12,
      "name": "floatBufferViews",
      "target": 34962
    },
    {
      "buffer": 0,
      "byteLength": 15584,
      "byteOffset": 62176,
      "byteStride": 16,
      "name": "floatBufferViews",
      "target": 34962
    }
  ],
  "buffers": [
    {
      "byteLength": 77760,
      "uri": "scene.bin"
    }
  ],
  "extensionsUsed": [
    "KHR_materials_emissive_strength"
  ],
  "images": [
    {
      "uri": "textures/uv_checker_material_uv_grid_4096x4096_baseColor.png"
    },
    {
      "uri": "textures/uv_checker_material_uv_grid_4096x4096_metallicRoughness.png"
    },
    {
      "uri": "textures/uv_checker_material_uv_grid_4096x4096_emissive.png"
    },
    {
      "uri": "textures/uv_checker_material_uv_grid_4096x4096_normal.png"
    }
  ],
  "materials": [
    {
      "doubleSided": true,
      "emissiveFactor": [
        1.0,
        1.0,
        1.0
      ],
      "emissiveTexture": {
        "index": 2
      },
      "extensions": {
        "KHR_materials_emissive_strength": {
          "emissiveStrength": 3.459058160939157
        }
      },
      "name": "uv_checker_material_uv_grid_4096x4096",
      "normalTexture": {
        "index": 3,
        "scale": 0.6019065962867696
      },
      "occlusionTexture": {
        "index": 1
      },
      "pbrMetallicRoughness": {
        "baseColorTexture": {
          "index": 0
        },
        "metallicRoughnessTexture": {
          "index": 1
        }
      }
    }
  ],
  "meshes": [
    {
      "name": "LP1_uv_checker_material_uv_grid_4096x4096_0",
      "primitives": [
        {
          "attributes": {
            "NORMAL": 1,
            "POSITION": 0,
            "TANGENT": 2,
            "TEXCOORD_0": 3,
            "TEXCOORD_1": 4,
            "TEXCOORD_2": 5,
            "TEXCOORD_3": 6
          },
          "indices": 7,
          "material": 0,
          "mode": 4
        }
      ]
    },
    {
      "name": "LP2_uv_checker_material_uv_grid_4096x4096_0",
      "primitives": [
        {
          "attributes": {
            "NORMAL": 9,
            "POSITION": 8,
            "TANGENT": 10,
            "TEXCOORD_0": 11,
            "TEXCOORD_1": 12,
            "TEXCOORD_2": 13,
            "TEXCOORD_3": 14
          },
          "indices": 15,
          "material": 0,
          "mode": 4
        }
      ]
    }
  ],
  "nodes": [
    {
      "children": [
        1
      ],
      "matrix": [
        1.0,
        0.0,
        0.0,
        0.0,
        0.0,
        -1.0,
        -4.440892098500626e-16,
        0.0,
        0.0,
        4.440892098500626e-16,
        -1.0,
        0.0,
        0.0,
        0.0,
        0.0,
        1.0
      ],
      "name": "Sketchfab_model"
    },
    {
      "children": [
        2
      ],
      "matrix": [
        0.009999999776482582,
        0.0,
        0.0,
        0.0,
        0.0,
        0.0,
        0.009999999776482582,
        0.0,
        0.0,
        -0.009999999776482582,
        0.0,
        0.0,
        0.0,
        0.0,
        0.0,
        1.0
      ],
      "name": "tablet_ready.fbx"
    },
    {
      "children": [
        3,
        5
      ],
      "name": "RootNode"
    },
    {
      "children": [
        4
      ],
      "matrix": [
        -4.371138984105016e-06,
        99.99999999999973,
        -5.960463766996327e-06,
        0.0,
        1.6292068227841128e-05,
        -5.960463056453591e-06,
        -99.9999999999985,
        0.0,
        -99.99999999999858,
        -4.371139955550163e-06,
        -1.6292067961387602e-05,
        0.0,
        0.0,
        1.8368148803710938,
        0.0,
        1.0
      ],
      "name": "LP1"
    },
    {
      "mesh": 0,
      "name": "LP1_uv_checker_material_uv_grid_4096x4096_0"
    },
    {
      "children": [
        6
      ],
      "matrix": [
        -4.371138984105016e-06,
        99.99999999999973,
        -5.960463766996327e-06,
        0.0,
        1.6292068227841128e-05,
        -5.960463056453591e-06,
        -99.9999999999985,
        0.0,
        -99.99999999999858,
        -4.371139955550163e-06,
        -1.6292067961387602e-05,
        0.0,
        0.0,
        1.8368148803710938,
        0.0,
        1.0
      ],
      "name": "LP2"
    },
    {
      "mesh": 1,
      "name": "LP2_uv_checker_material_uv_grid_4096x4096_0"
    }
  ],
  "samplers": [
    {
      "magFilter": 9729,
      "minFilter": 9987,
      "wrapS": 10497,
      "wrapT": 10497
    }
  ],
  "scene": 0,
  "scenes": [
    {
      "name": "Sketchfab_Scene",
      "nodes": [
        0
      ]
    }
  ],
  "textures": [
    {
      "sampler": 0,
      "source": 0
    },
    {
      "sampler": 0,
      "source": 1
    },
    {
      "sampler": 0,
      "source": 2
    },
    {
      "sampler": 0,
      "source": 3
    }
  ]
}
