{
  "accessors": [
    {
      "bufferView": 2,
      "componentType": 5126,
      "count": 54459,
      "max": [
        194.98550415039063,
        195.44029235839844,
        255.77162170410156
      ],
      "min": [
        -195.5240936279297,
        -196.73941040039063,
        43.57830047607422
      ],
      "type": "VEC3"
    },
    {
      "bufferView": 2,
      "byteOffset": 653508,
      "componentType": 5126,
      "count": 54459,
      "max": [
        0.9999862909317017,
        0.9999990463256836,
        0.9999959468841553
      ],
      "min": [
        -0.9999862909317017,
        -0.9999783039093018,
        -0.9999915361404419
      ],
      "type": "VEC3"
    },
    {
      "bufferView": 1,
      "componentType": 5126,
      "count": 54459,
      "max": [
        0.9978010058403015,
        0.9980469942092896
      ],
      "min": [
        0.0019529999699443579,
        0.0019529999699443579
      ],
      "type": "VEC2"
    },
    {
      "bufferView": 0,
      "componentType": 5125,
      "count": 270000,
      "type": "SCALAR"
    },
    {
      "bufferView": 2,
      "byteOffset": 1307016,
      "componentType": 5126,
      "count": 65532,
      "max": [
        97.78070068359375,
        97.7806625366211,
        317.681884765625
      ],
      "min": [
        -97.78070068359375,
        -97.7807388305664,
        251.52027893066406
      ],
      "type": "VEC3"
    },
    {
      "bufferView": 2,
      "byteOffset": 2093400,
      "componentType": 5126,
      "count": 65532,
      "max": [
        0.9999998807907104,
        1.0,
        1.0
      ],
      "min": [
        -1.0,
        -1.0,
        -1.0
      ],
      "type": "VEC3"
    },
    {
      "bufferView": 1,
      "byteOffset": 435672,
      "componentType": 5126,
      "count": 65532,
      "max": [
        0.9953550100326538,
        0.9980400204658508
      ],
      "min": [
        0.0019529999699443579,
        0.0019529999699443579
      ],
      "type": "VEC2"
    },
    {
      "bufferView": 0,
      "byteOffset": 1080000,
      "componentType": 5125,
      "count": 273378,
      "type": "SCALAR"
    },
    {
      "bufferView": 2,
      "byteOffset": 2879784,
      "componentType": 5126,
      "count": 40022,
      "max": [
        84.59200286865234,
        82.00016021728516,
        309.3753967285156
      ],
      "min": [
        -85.08499908447266,
        -72.35433959960938,
        251.53761291503906
      ],
      "type": "VEC3"
    },
    {
      "bufferView": 2,
      "byteOffset": 3360048,
      "componentType": 5126,
      "count": 40022,
      "max": [
        0.9999895095825195,
        0.9999994039535522,
        1.0
      ],
      "min": [
        -0.9999903440475464,
        -0.9999120235443115,
        -1.0
      ],
      "type": "VEC3"
    },
    {
      "bufferView": 1,
      "byteOffset": 959928,
      "componentType": 5126,
      "count": 40022,
      "max": [
        0.9951099753379822,
        0.9972299933433533
      ],
      "min": [
        0.0019529999699443579,
        0.0019529999699443579
      ],
      "type": "VEC2"
    },
    {
      "bufferView": 0,
      "byteOffset": 2173512,
      "componentType": 5125,
      "count": 176448,
      "type": "SCALAR"
    }
  ],
  "asset": {
    "extras": {
      "author": "The Smithsonian Institution (https://sketchfab.com/Smithsonian)",
      "license": "CC0-1.0 (http://creativecommons.org/publicdomain/zero/1.0/)",
      "source": "https://sketchfab.com/3d-models/apollo-11-command-module-exterior-bf46ddbfb76b42d2af57d20625b1b603",
      "title": "Apollo 11 Command Module Exterior"
    },
    "generator": "Sketchfab-12.66.0",
    "version": "2.0"
  },
  "bufferViews": [
    {
      "buffer": 0,
      "byteLength": 2879304,
      "name": "floatBufferViews",
      "target": 34963
    },
    {
      "buffer": 0,
      "byteLength": 1280104,
      "byteOffset": 2879304,
      "byteStride": 8,
      "name": "floatBufferViews",
      "target": 34962
    },
    {
      "buffer": 0,
      "byteLength": 3840312,
      "byteOffset": 4159408,
      "byteStride": 12,
      "name": "floatBufferViews",
      "target": 34962
    }
  ],
  "buffers": [
    {
      "byteLength": 7999720,
      "uri": "scene.bin"
    }
  ],
  "images": [
    {
      "uri": "textures/material_baseColor.jpeg"
    },
    {
      "uri": "textures/ml.001_baseColor.jpeg"
    }
  ],
  "materials": [
    {
      "name": "material",
      "pbrMetallicRoughness": {
        "baseColorTexture": {
          "index": 0
        },
        "metallicFactor": 0.0
      }
    },
    {
      "name": "ml.001",
      "pbrMetallicRoughness": {
        "baseColorTexture": {
          "index": 1
        },
        "metallicFactor": 0.0
      }
    }
  ],
  "meshes": [
    {
      "name": "Object_0",
      "primitives": [
        {
          "attributes": {
            "NORMAL": 1,
            "POSITION": 0,
            "TEXCOORD_0": 2
          },
          "indices": 3,
          "material": 0,
          "mode": 4
        }
      ]
    },
    {
      "name": "Object_1",
      "primitives": [
        {
          "attributes": {
            "NORMAL": 5,
            "POSITION": 4,
            "TEXCOORD_0": 6
          },
          "indices": 7,
          "material": 1,
          "mode": 4
        }
      ]
    },
    {
      "name": "Object_2",
      "primitives": [
        {
          "attributes": {
            "NORMAL": 9,
            "POSITION": 8,
            "TEXCOORD_0": 10
          },
          "indices": 11,
          "material": 1,
          "mode": 4
        }
      ]
    }
  ],
  "nodes": [
    {
      "children": [
        1
      ],
      "matrix": [
        0.014803454279899597,
        0.0,
        0.0,
        0.0,
        0.0,
        3.28702715710607e-18,
        -0.014803454279899597,
        0.0,
        0.0,
        0.014803454279899597,
        3.28702715710607e-18,
        0.0,
        0.0,
        0.0,
        0.0,
        1.0
      ],
      "name": "Sketchfab_model"
    },
    {
      "children": [
        2,
        3,
        4
      ],
      "name": "Apollo_Exterior.obj.cleaner.materialmerger.gles"
    },
    {
      "mesh": 0,
      "name": "Object_2"
    },
    {
      "mesh": 1,
      "name": "Object_3"
    },
    {
      "mesh": 2,
      "name": "Object_4"
    }
  ],
  "samplers": [
    {
      "magFilter": 9729,
      "minFilter": 9987,
      "wrapS": 10497,
      "wrapT": 10497
    }
  ],
  "scene": 0,
  "scenes": [
    {
      "name": "Sketchfab_Scene",
      "nodes": [
        0
      ]
    }
  ],
  "textures": [
    {
      "sampler": 0,
      "source": 0
    },
    {
      "sampler": 0,
      "source": 1
    }
  ]
}
